<?xml version="1.0" encoding="UTF-8"?>
<svg width="184px" height="110px" viewBox="0 0 184 110" version="1.1" xmlns="http://www.w3.org/2000/svg" xmlns:xlink="http://www.w3.org/1999/xlink">
    <!-- Generator: Sketch 54.1 (76490) - https://sketchapp.com -->
    <title>Group 5 Copy</title>
    <desc>Created with Sketch.</desc>
    <g id="Page-1" stroke="none" stroke-width="1" fill="none" fill-rule="evenodd">
        <g id="Welcome-email---V1" transform="translate(-597.000000, -284.000000)">
            <g id="Group-7" transform="translate(597.000000, 285.000000)">
                <g id="Group-5-Copy">
                    <g id="Group-17" transform="translate(0.000000, 0.508798)">
                        <g id="Search-Resume" transform="translate(13.214920, 0.000000)">
                            <g id="Group-6" transform="translate(0.286670, 0.027672)" fill="#FFFFFF" stroke="#000000" stroke-width="3">
                                <polygon id="Fill-6622" points="0.327377838 96.5031268 156.030853 96.5031268 156.030853 0.02642249 0.327377838 0.02642249"></polygon>
                            </g>
                            <path d="M8.41666667,12.2467375 L147.872074,12.2467375" id="Line-7" stroke="#9B9B9B" stroke-width="11"></path>
                        </g>
                        <polygon id="Fill-3767-Copy" stroke="#6ED3FF" stroke-width="2" fill="#FFFFFF" points="98 98.4912022 159 98.4912022 159 20.4912022 98 20.4912022"></polygon>
                        <g id="Halftone-" transform="translate(37.844324, 64.475893) rotate(-270.000000) translate(-37.844324, -64.475893) translate(-6.655676, 47.975893)">
                            <polygon id="Fill-3767-Copy" fill="#ECECEC" points="0 32.6026947 77.3664201 32.6026947 77.3664201 1 0 1"></polygon>
                            <g id="Group-14" transform="translate(0.000000, 11.000000)" fill="#000000">
                                <circle id="Oval-4" transform="translate(1.563790, 2.432710) rotate(-45.000000) translate(-1.563790, -2.432710) " cx="1.56378971" cy="2.43271026" r="1"></circle>
                                <circle id="Oval-4" transform="translate(1.334378, 7.486742) rotate(-45.000000) translate(-1.334378, -7.486742) " cx="1.33437806" cy="7.48674189" r="1"></circle>
                                <circle id="Oval-4" transform="translate(3.982712, 4.845320) rotate(-45.000000) translate(-3.982712, -4.845320) " cx="3.98271245" cy="4.84531963" r="1"></circle>
                                <circle id="Oval-4" transform="translate(6.631047, 2.203897) rotate(-45.000000) translate(-6.631047, -2.203897) " cx="6.63104685" cy="2.20389737" r="1"></circle>
                                <circle id="Oval-4" transform="translate(3.753301, 9.899351) rotate(-45.000000) translate(-3.753301, -9.899351) " cx="3.7533008" cy="9.89935126" r="1"></circle>
                                <circle id="Oval-4" transform="translate(6.401635, 7.257929) rotate(-45.000000) translate(-6.401635, -7.257929) " cx="6.4016352" cy="7.25792901" r="1"></circle>
                                <circle id="Oval-4" transform="translate(9.049970, 4.616507) rotate(-45.000000) translate(-9.049970, -4.616507) " cx="9.04996959" cy="4.61650675" r="1"></circle>
                                <circle id="Oval-4" transform="translate(11.698304, 1.975084) rotate(-45.000000) translate(-11.698304, -1.975084) " cx="11.698304" cy="1.97508449" r="1"></circle>
                                <circle id="Oval-4" transform="translate(8.820558, 9.670538) rotate(-45.000000) translate(-8.820558, -9.670538) " cx="8.82055794" cy="9.67053838" r="1"></circle>
                                <circle id="Oval-4" transform="translate(11.468892, 7.029116) rotate(-45.000000) translate(-11.468892, -7.029116) " cx="11.4688923" cy="7.02911612" r="1"></circle>
                                <circle id="Oval-4" transform="translate(14.117227, 4.387694) rotate(-45.000000) translate(-14.117227, -4.387694) " cx="14.1172267" cy="4.38769386" r="1"></circle>
                                <circle id="Oval-4" transform="translate(16.765561, 1.746272) rotate(-45.000000) translate(-16.765561, -1.746272) " cx="16.7655611" cy="1.7462716" r="1"></circle>
                                <circle id="Oval-4" transform="translate(13.887815, 9.441725) rotate(-45.000000) translate(-13.887815, -9.441725) " cx="13.8878151" cy="9.44172549" r="1"></circle>
                                <circle id="Oval-4" transform="translate(16.536149, 6.800303) rotate(-45.000000) translate(-16.536149, -6.800303) " cx="16.5361495" cy="6.80030323" r="1"></circle>
                                <circle id="Oval-4" transform="translate(19.184484, 4.158881) rotate(-45.000000) translate(-19.184484, -4.158881) " cx="19.1844839" cy="4.15888097" r="1"></circle>
                                <circle id="Oval-4" transform="translate(21.832818, 1.517459) rotate(-45.000000) translate(-21.832818, -1.517459) " cx="21.8328182" cy="1.51745872" r="1"></circle>
                                <circle id="Oval-4" transform="translate(18.955072, 9.212913) rotate(-45.000000) translate(-18.955072, -9.212913) " cx="18.9550722" cy="9.21291261" r="1"></circle>
                                <circle id="Oval-4" transform="translate(21.603407, 6.571490) rotate(-45.000000) translate(-21.603407, -6.571490) " cx="21.6034066" cy="6.57149035" r="1"></circle>
                                <circle id="Oval-4" transform="translate(24.251741, 3.930068) rotate(-45.000000) translate(-24.251741, -3.930068) " cx="24.251741" cy="3.93006809" r="1"></circle>
                                <circle id="Oval-4" transform="translate(26.900075, 1.288646) rotate(-45.000000) translate(-26.900075, -1.288646) " cx="26.9000754" cy="1.28864583" r="1"></circle>
                                <circle id="Oval-4" transform="translate(24.022329, 8.984100) rotate(-45.000000) translate(-24.022329, -8.984100) " cx="24.0223293" cy="8.98409972" r="1"></circle>
                                <circle id="Oval-4" transform="translate(26.670664, 6.342677) rotate(-45.000000) translate(-26.670664, -6.342677) " cx="26.6706637" cy="6.34267746" r="1"></circle>
                                <circle id="Oval-4" transform="translate(29.318998, 3.701255) rotate(-45.000000) translate(-29.318998, -3.701255) " cx="29.3189981" cy="3.7012552" r="1"></circle>
                                <circle id="Oval-4" transform="translate(29.089586, 8.755287) rotate(-45.000000) translate(-29.089586, -8.755287) " cx="29.0895865" cy="8.75528683" r="1"></circle>
                            </g>
                            <g id="Group-14-Copy-2" transform="translate(0.000000, 1.000000)" fill="#000000">
                                <circle id="Oval-4" transform="translate(1.563790, 2.432710) rotate(-45.000000) translate(-1.563790, -2.432710) " cx="1.56378971" cy="2.43271026" r="1"></circle>
                                <circle id="Oval-4" transform="translate(1.334378, 7.486742) rotate(-45.000000) translate(-1.334378, -7.486742) " cx="1.33437806" cy="7.48674189" r="1"></circle>
                                <circle id="Oval-4" transform="translate(3.982712, 4.845320) rotate(-45.000000) translate(-3.982712, -4.845320) " cx="3.98271245" cy="4.84531963" r="1"></circle>
                                <circle id="Oval-4" transform="translate(6.631047, 2.203897) rotate(-45.000000) translate(-6.631047, -2.203897) " cx="6.63104685" cy="2.20389737" r="1"></circle>
                                <circle id="Oval-4" transform="translate(3.753301, 9.899351) rotate(-45.000000) translate(-3.753301, -9.899351) " cx="3.7533008" cy="9.89935126" r="1"></circle>
                                <circle id="Oval-4" transform="translate(6.401635, 7.257929) rotate(-45.000000) translate(-6.401635, -7.257929) " cx="6.4016352" cy="7.25792901" r="1"></circle>
                                <circle id="Oval-4" transform="translate(9.049970, 4.616507) rotate(-45.000000) translate(-9.049970, -4.616507) " cx="9.04996959" cy="4.61650675" r="1"></circle>
                                <circle id="Oval-4" transform="translate(11.698304, 1.975084) rotate(-45.000000) translate(-11.698304, -1.975084) " cx="11.698304" cy="1.97508449" r="1"></circle>
                                <circle id="Oval-4" transform="translate(8.820558, 9.670538) rotate(-45.000000) translate(-8.820558, -9.670538) " cx="8.82055794" cy="9.67053838" r="1"></circle>
                                <circle id="Oval-4" transform="translate(11.468892, 7.029116) rotate(-45.000000) translate(-11.468892, -7.029116) " cx="11.4688923" cy="7.02911612" r="1"></circle>
                                <circle id="Oval-4" transform="translate(14.117227, 4.387694) rotate(-45.000000) translate(-14.117227, -4.387694) " cx="14.1172267" cy="4.38769386" r="1"></circle>
                                <circle id="Oval-4" transform="translate(16.765561, 1.746272) rotate(-45.000000) translate(-16.765561, -1.746272) " cx="16.7655611" cy="1.7462716" r="1"></circle>
                                <circle id="Oval-4" transform="translate(13.887815, 9.441725) rotate(-45.000000) translate(-13.887815, -9.441725) " cx="13.8878151" cy="9.44172549" r="1"></circle>
                                <circle id="Oval-4" transform="translate(16.536149, 6.800303) rotate(-45.000000) translate(-16.536149, -6.800303) " cx="16.5361495" cy="6.80030323" r="1"></circle>
                                <circle id="Oval-4" transform="translate(19.184484, 4.158881) rotate(-45.000000) translate(-19.184484, -4.158881) " cx="19.1844839" cy="4.15888097" r="1"></circle>
                                <circle id="Oval-4" transform="translate(21.832818, 1.517459) rotate(-45.000000) translate(-21.832818, -1.517459) " cx="21.8328182" cy="1.51745872" r="1"></circle>
                                <circle id="Oval-4" transform="translate(18.955072, 9.212913) rotate(-45.000000) translate(-18.955072, -9.212913) " cx="18.9550722" cy="9.21291261" r="1"></circle>
                                <circle id="Oval-4" transform="translate(21.603407, 6.571490) rotate(-45.000000) translate(-21.603407, -6.571490) " cx="21.6034066" cy="6.57149035" r="1"></circle>
                                <circle id="Oval-4" transform="translate(24.251741, 3.930068) rotate(-45.000000) translate(-24.251741, -3.930068) " cx="24.251741" cy="3.93006809" r="1"></circle>
                                <circle id="Oval-4" transform="translate(26.900075, 1.288646) rotate(-45.000000) translate(-26.900075, -1.288646) " cx="26.9000754" cy="1.28864583" r="1"></circle>
                                <circle id="Oval-4" transform="translate(24.022329, 8.984100) rotate(-45.000000) translate(-24.022329, -8.984100) " cx="24.0223293" cy="8.98409972" r="1"></circle>
                                <circle id="Oval-4" transform="translate(26.670664, 6.342677) rotate(-45.000000) translate(-26.670664, -6.342677) " cx="26.6706637" cy="6.34267746" r="1"></circle>
                                <circle id="Oval-4" transform="translate(29.318998, 3.701255) rotate(-45.000000) translate(-29.318998, -3.701255) " cx="29.3189981" cy="3.7012552" r="1"></circle>
                                <circle id="Oval-4" transform="translate(29.089586, 8.755287) rotate(-45.000000) translate(-29.089586, -8.755287) " cx="29.0895865" cy="8.75528683" r="1"></circle>
                            </g>
                            <g id="Group-14-Copy" transform="translate(0.000000, 22.000000)" fill="#000000">
                                <circle id="Oval-4" transform="translate(1.563790, 2.432710) rotate(-45.000000) translate(-1.563790, -2.432710) " cx="1.56378971" cy="2.43271026" r="1"></circle>
                                <circle id="Oval-4" transform="translate(1.334378, 7.486742) rotate(-45.000000) translate(-1.334378, -7.486742) " cx="1.33437806" cy="7.48674189" r="1"></circle>
                                <circle id="Oval-4" transform="translate(3.982712, 4.845320) rotate(-45.000000) translate(-3.982712, -4.845320) " cx="3.98271245" cy="4.84531963" r="1"></circle>
                                <circle id="Oval-4" transform="translate(6.631047, 2.203897) rotate(-45.000000) translate(-6.631047, -2.203897) " cx="6.63104685" cy="2.20389737" r="1"></circle>
                                <circle id="Oval-4" transform="translate(3.753301, 9.899351) rotate(-45.000000) translate(-3.753301, -9.899351) " cx="3.7533008" cy="9.89935126" r="1"></circle>
                                <circle id="Oval-4" transform="translate(6.401635, 7.257929) rotate(-45.000000) translate(-6.401635, -7.257929) " cx="6.4016352" cy="7.25792901" r="1"></circle>
                                <circle id="Oval-4" transform="translate(9.049970, 4.616507) rotate(-45.000000) translate(-9.049970, -4.616507) " cx="9.04996959" cy="4.61650675" r="1"></circle>
                                <circle id="Oval-4" transform="translate(11.698304, 1.975084) rotate(-45.000000) translate(-11.698304, -1.975084) " cx="11.698304" cy="1.97508449" r="1"></circle>
                                <circle id="Oval-4" transform="translate(8.820558, 9.670538) rotate(-45.000000) translate(-8.820558, -9.670538) " cx="8.82055794" cy="9.67053838" r="1"></circle>
                                <circle id="Oval-4" transform="translate(11.468892, 7.029116) rotate(-45.000000) translate(-11.468892, -7.029116) " cx="11.4688923" cy="7.02911612" r="1"></circle>
                                <circle id="Oval-4" transform="translate(14.117227, 4.387694) rotate(-45.000000) translate(-14.117227, -4.387694) " cx="14.1172267" cy="4.38769386" r="1"></circle>
                                <circle id="Oval-4" transform="translate(16.765561, 1.746272) rotate(-45.000000) translate(-16.765561, -1.746272) " cx="16.7655611" cy="1.7462716" r="1"></circle>
                                <circle id="Oval-4" transform="translate(13.887815, 9.441725) rotate(-45.000000) translate(-13.887815, -9.441725) " cx="13.8878151" cy="9.44172549" r="1"></circle>
                                <circle id="Oval-4" transform="translate(16.536149, 6.800303) rotate(-45.000000) translate(-16.536149, -6.800303) " cx="16.5361495" cy="6.80030323" r="1"></circle>
                                <circle id="Oval-4" transform="translate(19.184484, 4.158881) rotate(-45.000000) translate(-19.184484, -4.158881) " cx="19.1844839" cy="4.15888097" r="1"></circle>
                                <circle id="Oval-4" transform="translate(21.832818, 1.517459) rotate(-45.000000) translate(-21.832818, -1.517459) " cx="21.8328182" cy="1.51745872" r="1"></circle>
                                <circle id="Oval-4" transform="translate(18.955072, 9.212913) rotate(-45.000000) translate(-18.955072, -9.212913) " cx="18.9550722" cy="9.21291261" r="1"></circle>
                                <circle id="Oval-4" transform="translate(21.603407, 6.571490) rotate(-45.000000) translate(-21.603407, -6.571490) " cx="21.6034066" cy="6.57149035" r="1"></circle>
                                <circle id="Oval-4" transform="translate(24.251741, 3.930068) rotate(-45.000000) translate(-24.251741, -3.930068) " cx="24.251741" cy="3.93006809" r="1"></circle>
                                <circle id="Oval-4" transform="translate(26.900075, 1.288646) rotate(-45.000000) translate(-26.900075, -1.288646) " cx="26.9000754" cy="1.28864583" r="1"></circle>
                                <circle id="Oval-4" transform="translate(24.022329, 8.984100) rotate(-45.000000) translate(-24.022329, -8.984100) " cx="24.0223293" cy="8.98409972" r="1"></circle>
                                <circle id="Oval-4" transform="translate(26.670664, 6.342677) rotate(-45.000000) translate(-26.670664, -6.342677) " cx="26.6706637" cy="6.34267746" r="1"></circle>
                                <circle id="Oval-4" transform="translate(29.318998, 3.701255) rotate(-45.000000) translate(-29.318998, -3.701255) " cx="29.3189981" cy="3.7012552" r="1"></circle>
                                <circle id="Oval-4" transform="translate(29.089586, 8.755287) rotate(-45.000000) translate(-29.089586, -8.755287) " cx="29.0895865" cy="8.75528683" r="1"></circle>
                            </g>
                            <g id="Group-14" transform="translate(32.000000, 1.000000)" fill="#000000">
                                <circle id="Oval-4" transform="translate(1.563790, 2.432710) rotate(-45.000000) translate(-1.563790, -2.432710) " cx="1.56378971" cy="2.43271026" r="1"></circle>
                                <circle id="Oval-4" transform="translate(1.334378, 7.486742) rotate(-45.000000) translate(-1.334378, -7.486742) " cx="1.33437806" cy="7.48674189" r="1"></circle>
                                <circle id="Oval-4" transform="translate(3.982712, 4.845320) rotate(-45.000000) translate(-3.982712, -4.845320) " cx="3.98271245" cy="4.84531963" r="1"></circle>
                                <circle id="Oval-4" transform="translate(6.631047, 2.203897) rotate(-45.000000) translate(-6.631047, -2.203897) " cx="6.63104685" cy="2.20389737" r="1"></circle>
                                <circle id="Oval-4" transform="translate(3.753301, 9.899351) rotate(-45.000000) translate(-3.753301, -9.899351) " cx="3.7533008" cy="9.89935126" r="1"></circle>
                                <circle id="Oval-4" transform="translate(6.401635, 7.257929) rotate(-45.000000) translate(-6.401635, -7.257929) " cx="6.4016352" cy="7.25792901" r="1"></circle>
                                <circle id="Oval-4" transform="translate(9.049970, 4.616507) rotate(-45.000000) translate(-9.049970, -4.616507) " cx="9.04996959" cy="4.61650675" r="1"></circle>
                                <circle id="Oval-4" transform="translate(11.698304, 1.975084) rotate(-45.000000) translate(-11.698304, -1.975084) " cx="11.698304" cy="1.97508449" r="1"></circle>
                                <circle id="Oval-4" transform="translate(8.820558, 9.670538) rotate(-45.000000) translate(-8.820558, -9.670538) " cx="8.82055794" cy="9.67053838" r="1"></circle>
                                <circle id="Oval-4" transform="translate(11.468892, 7.029116) rotate(-45.000000) translate(-11.468892, -7.029116) " cx="11.4688923" cy="7.02911612" r="1"></circle>
                                <circle id="Oval-4" transform="translate(14.117227, 4.387694) rotate(-45.000000) translate(-14.117227, -4.387694) " cx="14.1172267" cy="4.38769386" r="1"></circle>
                                <circle id="Oval-4" transform="translate(16.765561, 1.746272) rotate(-45.000000) translate(-16.765561, -1.746272) " cx="16.7655611" cy="1.7462716" r="1"></circle>
                                <circle id="Oval-4" transform="translate(13.887815, 9.441725) rotate(-45.000000) translate(-13.887815, -9.441725) " cx="13.8878151" cy="9.44172549" r="1"></circle>
                                <circle id="Oval-4" transform="translate(16.536149, 6.800303) rotate(-45.000000) translate(-16.536149, -6.800303) " cx="16.5361495" cy="6.80030323" r="1"></circle>
                                <circle id="Oval-4" transform="translate(19.184484, 4.158881) rotate(-45.000000) translate(-19.184484, -4.158881) " cx="19.1844839" cy="4.15888097" r="1"></circle>
                                <circle id="Oval-4" transform="translate(21.832818, 1.517459) rotate(-45.000000) translate(-21.832818, -1.517459) " cx="21.8328182" cy="1.51745872" r="1"></circle>
                                <circle id="Oval-4" transform="translate(18.955072, 9.212913) rotate(-45.000000) translate(-18.955072, -9.212913) " cx="18.9550722" cy="9.21291261" r="1"></circle>
                                <circle id="Oval-4" transform="translate(21.603407, 6.571490) rotate(-45.000000) translate(-21.603407, -6.571490) " cx="21.6034066" cy="6.57149035" r="1"></circle>
                                <circle id="Oval-4" transform="translate(24.251741, 3.930068) rotate(-45.000000) translate(-24.251741, -3.930068) " cx="24.251741" cy="3.93006809" r="1"></circle>
                                <circle id="Oval-4" transform="translate(26.900075, 1.288646) rotate(-45.000000) translate(-26.900075, -1.288646) " cx="26.9000754" cy="1.28864583" r="1"></circle>
                                <circle id="Oval-4" transform="translate(24.022329, 8.984100) rotate(-45.000000) translate(-24.022329, -8.984100) " cx="24.0223293" cy="8.98409972" r="1"></circle>
                                <circle id="Oval-4" transform="translate(26.670664, 6.342677) rotate(-45.000000) translate(-26.670664, -6.342677) " cx="26.6706637" cy="6.34267746" r="1"></circle>
                                <circle id="Oval-4" transform="translate(29.318998, 3.701255) rotate(-45.000000) translate(-29.318998, -3.701255) " cx="29.3189981" cy="3.7012552" r="1"></circle>
                                <circle id="Oval-4" transform="translate(29.089586, 8.755287) rotate(-45.000000) translate(-29.089586, -8.755287) " cx="29.0895865" cy="8.75528683" r="1"></circle>
                            </g>
                            <g id="Group-14-Copy-2" transform="translate(32.000000, 11.000000)" fill="#000000">
                                <circle id="Oval-4" transform="translate(1.563790, 2.432710) rotate(-45.000000) translate(-1.563790, -2.432710) " cx="1.56378971" cy="2.43271026" r="1"></circle>
                                <circle id="Oval-4" transform="translate(1.334378, 7.486742) rotate(-45.000000) translate(-1.334378, -7.486742) " cx="1.33437806" cy="7.48674189" r="1"></circle>
                                <circle id="Oval-4" transform="translate(3.982712, 4.845320) rotate(-45.000000) translate(-3.982712, -4.845320) " cx="3.98271245" cy="4.84531963" r="1"></circle>
                                <circle id="Oval-4" transform="translate(6.631047, 2.203897) rotate(-45.000000) translate(-6.631047, -2.203897) " cx="6.63104685" cy="2.20389737" r="1"></circle>
                                <circle id="Oval-4" transform="translate(3.753301, 9.899351) rotate(-45.000000) translate(-3.753301, -9.899351) " cx="3.7533008" cy="9.89935126" r="1"></circle>
                                <circle id="Oval-4" transform="translate(6.401635, 7.257929) rotate(-45.000000) translate(-6.401635, -7.257929) " cx="6.4016352" cy="7.25792901" r="1"></circle>
                                <circle id="Oval-4" transform="translate(9.049970, 4.616507) rotate(-45.000000) translate(-9.049970, -4.616507) " cx="9.04996959" cy="4.61650675" r="1"></circle>
                                <circle id="Oval-4" transform="translate(11.698304, 1.975084) rotate(-45.000000) translate(-11.698304, -1.975084) " cx="11.698304" cy="1.97508449" r="1"></circle>
                                <circle id="Oval-4" transform="translate(8.820558, 9.670538) rotate(-45.000000) translate(-8.820558, -9.670538) " cx="8.82055794" cy="9.67053838" r="1"></circle>
                                <circle id="Oval-4" transform="translate(11.468892, 7.029116) rotate(-45.000000) translate(-11.468892, -7.029116) " cx="11.4688923" cy="7.02911612" r="1"></circle>
                                <circle id="Oval-4" transform="translate(14.117227, 4.387694) rotate(-45.000000) translate(-14.117227, -4.387694) " cx="14.1172267" cy="4.38769386" r="1"></circle>
                                <circle id="Oval-4" transform="translate(16.765561, 1.746272) rotate(-45.000000) translate(-16.765561, -1.746272) " cx="16.7655611" cy="1.7462716" r="1"></circle>
                                <circle id="Oval-4" transform="translate(13.887815, 9.441725) rotate(-45.000000) translate(-13.887815, -9.441725) " cx="13.8878151" cy="9.44172549" r="1"></circle>
                                <circle id="Oval-4" transform="translate(16.536149, 6.800303) rotate(-45.000000) translate(-16.536149, -6.800303) " cx="16.5361495" cy="6.80030323" r="1"></circle>
                                <circle id="Oval-4" transform="translate(19.184484, 4.158881) rotate(-45.000000) translate(-19.184484, -4.158881) " cx="19.1844839" cy="4.15888097" r="1"></circle>
                                <circle id="Oval-4" transform="translate(21.832818, 1.517459) rotate(-45.000000) translate(-21.832818, -1.517459) " cx="21.8328182" cy="1.51745872" r="1"></circle>
                                <circle id="Oval-4" transform="translate(18.955072, 9.212913) rotate(-45.000000) translate(-18.955072, -9.212913) " cx="18.9550722" cy="9.21291261" r="1"></circle>
                                <circle id="Oval-4" transform="translate(21.603407, 6.571490) rotate(-45.000000) translate(-21.603407, -6.571490) " cx="21.6034066" cy="6.57149035" r="1"></circle>
                                <circle id="Oval-4" transform="translate(24.251741, 3.930068) rotate(-45.000000) translate(-24.251741, -3.930068) " cx="24.251741" cy="3.93006809" r="1"></circle>
                                <circle id="Oval-4" transform="translate(26.900075, 1.288646) rotate(-45.000000) translate(-26.900075, -1.288646) " cx="26.9000754" cy="1.28864583" r="1"></circle>
                                <circle id="Oval-4" transform="translate(24.022329, 8.984100) rotate(-45.000000) translate(-24.022329, -8.984100) " cx="24.0223293" cy="8.98409972" r="1"></circle>
                                <circle id="Oval-4" transform="translate(26.670664, 6.342677) rotate(-45.000000) translate(-26.670664, -6.342677) " cx="26.6706637" cy="6.34267746" r="1"></circle>
                                <circle id="Oval-4" transform="translate(29.318998, 3.701255) rotate(-45.000000) translate(-29.318998, -3.701255) " cx="29.3189981" cy="3.7012552" r="1"></circle>
                                <circle id="Oval-4" transform="translate(29.089586, 8.755287) rotate(-45.000000) translate(-29.089586, -8.755287) " cx="29.0895865" cy="8.75528683" r="1"></circle>
                            </g>
                            <g id="Group-14-Copy" transform="translate(32.000000, 22.000000)" fill="#000000">
                                <circle id="Oval-4" transform="translate(1.563790, 2.432710) rotate(-45.000000) translate(-1.563790, -2.432710) " cx="1.56378971" cy="2.43271026" r="1"></circle>
                                <circle id="Oval-4" transform="translate(1.334378, 7.486742) rotate(-45.000000) translate(-1.334378, -7.486742) " cx="1.33437806" cy="7.48674189" r="1"></circle>
                                <circle id="Oval-4" transform="translate(3.982712, 4.845320) rotate(-45.000000) translate(-3.982712, -4.845320) " cx="3.98271245" cy="4.84531963" r="1"></circle>
                                <circle id="Oval-4" transform="translate(6.631047, 2.203897) rotate(-45.000000) translate(-6.631047, -2.203897) " cx="6.63104685" cy="2.20389737" r="1"></circle>
                                <circle id="Oval-4" transform="translate(3.753301, 9.899351) rotate(-45.000000) translate(-3.753301, -9.899351) " cx="3.7533008" cy="9.89935126" r="1"></circle>
                                <circle id="Oval-4" transform="translate(6.401635, 7.257929) rotate(-45.000000) translate(-6.401635, -7.257929) " cx="6.4016352" cy="7.25792901" r="1"></circle>
                                <circle id="Oval-4" transform="translate(9.049970, 4.616507) rotate(-45.000000) translate(-9.049970, -4.616507) " cx="9.04996959" cy="4.61650675" r="1"></circle>
                                <circle id="Oval-4" transform="translate(11.698304, 1.975084) rotate(-45.000000) translate(-11.698304, -1.975084) " cx="11.698304" cy="1.97508449" r="1"></circle>
                                <circle id="Oval-4" transform="translate(8.820558, 9.670538) rotate(-45.000000) translate(-8.820558, -9.670538) " cx="8.82055794" cy="9.67053838" r="1"></circle>
                                <circle id="Oval-4" transform="translate(11.468892, 7.029116) rotate(-45.000000) translate(-11.468892, -7.029116) " cx="11.4688923" cy="7.02911612" r="1"></circle>
                                <circle id="Oval-4" transform="translate(14.117227, 4.387694) rotate(-45.000000) translate(-14.117227, -4.387694) " cx="14.1172267" cy="4.38769386" r="1"></circle>
                                <circle id="Oval-4" transform="translate(16.765561, 1.746272) rotate(-45.000000) translate(-16.765561, -1.746272) " cx="16.7655611" cy="1.7462716" r="1"></circle>
                                <circle id="Oval-4" transform="translate(13.887815, 9.441725) rotate(-45.000000) translate(-13.887815, -9.441725) " cx="13.8878151" cy="9.44172549" r="1"></circle>
                                <circle id="Oval-4" transform="translate(16.536149, 6.800303) rotate(-45.000000) translate(-16.536149, -6.800303) " cx="16.5361495" cy="6.80030323" r="1"></circle>
                                <circle id="Oval-4" transform="translate(19.184484, 4.158881) rotate(-45.000000) translate(-19.184484, -4.158881) " cx="19.1844839" cy="4.15888097" r="1"></circle>
                                <circle id="Oval-4" transform="translate(21.832818, 1.517459) rotate(-45.000000) translate(-21.832818, -1.517459) " cx="21.8328182" cy="1.51745872" r="1"></circle>
                                <circle id="Oval-4" transform="translate(18.955072, 9.212913) rotate(-45.000000) translate(-18.955072, -9.212913) " cx="18.9550722" cy="9.21291261" r="1"></circle>
                                <circle id="Oval-4" transform="translate(21.603407, 6.571490) rotate(-45.000000) translate(-21.603407, -6.571490) " cx="21.6034066" cy="6.57149035" r="1"></circle>
                                <circle id="Oval-4" transform="translate(24.251741, 3.930068) rotate(-45.000000) translate(-24.251741, -3.930068) " cx="24.251741" cy="3.93006809" r="1"></circle>
                                <circle id="Oval-4" transform="translate(26.900075, 1.288646) rotate(-45.000000) translate(-26.900075, -1.288646) " cx="26.9000754" cy="1.28864583" r="1"></circle>
                                <circle id="Oval-4" transform="translate(24.022329, 8.984100) rotate(-45.000000) translate(-24.022329, -8.984100) " cx="24.0223293" cy="8.98409972" r="1"></circle>
                                <circle id="Oval-4" transform="translate(26.670664, 6.342677) rotate(-45.000000) translate(-26.670664, -6.342677) " cx="26.6706637" cy="6.34267746" r="1"></circle>
                                <circle id="Oval-4" transform="translate(29.318998, 3.701255) rotate(-45.000000) translate(-29.318998, -3.701255) " cx="29.3189981" cy="3.7012552" r="1"></circle>
                                <circle id="Oval-4" transform="translate(29.089586, 8.755287) rotate(-45.000000) translate(-29.089586, -8.755287) " cx="29.0895865" cy="8.75528683" r="1"></circle>
                            </g>
                            <g id="Group-14-Copy-2" transform="translate(63.000000, 21.000000)" fill="#000000">
                                <circle id="Oval-4" transform="translate(1.563790, 2.432710) rotate(-45.000000) translate(-1.563790, -2.432710) " cx="1.56378971" cy="2.43271026" r="1"></circle>
                                <circle id="Oval-4" transform="translate(1.334378, 7.486742) rotate(-45.000000) translate(-1.334378, -7.486742) " cx="1.33437806" cy="7.48674189" r="1"></circle>
                                <circle id="Oval-4" transform="translate(3.982712, 4.845320) rotate(-45.000000) translate(-3.982712, -4.845320) " cx="3.98271245" cy="4.84531963" r="1"></circle>
                                <circle id="Oval-4" transform="translate(6.631047, 2.203897) rotate(-45.000000) translate(-6.631047, -2.203897) " cx="6.63104685" cy="2.20389737" r="1"></circle>
                                <circle id="Oval-4" transform="translate(3.753301, 9.899351) rotate(-45.000000) translate(-3.753301, -9.899351) " cx="3.7533008" cy="9.89935126" r="1"></circle>
                                <circle id="Oval-4" transform="translate(6.401635, 7.257929) rotate(-45.000000) translate(-6.401635, -7.257929) " cx="6.4016352" cy="7.25792901" r="1"></circle>
                                <circle id="Oval-4" transform="translate(9.049970, 4.616507) rotate(-45.000000) translate(-9.049970, -4.616507) " cx="9.04996959" cy="4.61650675" r="1"></circle>
                                <circle id="Oval-4" transform="translate(11.698304, 1.975084) rotate(-45.000000) translate(-11.698304, -1.975084) " cx="11.698304" cy="1.97508449" r="1"></circle>
                                <circle id="Oval-4" transform="translate(8.820558, 9.670538) rotate(-45.000000) translate(-8.820558, -9.670538) " cx="8.82055794" cy="9.67053838" r="1"></circle>
                                <circle id="Oval-4" transform="translate(11.468892, 7.029116) rotate(-45.000000) translate(-11.468892, -7.029116) " cx="11.4688923" cy="7.02911612" r="1"></circle>
                                <circle id="Oval-4" transform="translate(14.117227, 4.387694) rotate(-45.000000) translate(-14.117227, -4.387694) " cx="14.1172267" cy="4.38769386" r="1"></circle>
                                <circle id="Oval-4" transform="translate(16.765561, 1.746272) rotate(-45.000000) translate(-16.765561, -1.746272) " cx="16.7655611" cy="1.7462716" r="1"></circle>
                                <circle id="Oval-4" transform="translate(13.887815, 9.441725) rotate(-45.000000) translate(-13.887815, -9.441725) " cx="13.8878151" cy="9.44172549" r="1"></circle>
                                <circle id="Oval-4" transform="translate(16.536149, 6.800303) rotate(-45.000000) translate(-16.536149, -6.800303) " cx="16.5361495" cy="6.80030323" r="1"></circle>
                                <circle id="Oval-4" transform="translate(19.184484, 4.158881) rotate(-45.000000) translate(-19.184484, -4.158881) " cx="19.1844839" cy="4.15888097" r="1"></circle>
                                <circle id="Oval-4" transform="translate(21.832818, 1.517459) rotate(-45.000000) translate(-21.832818, -1.517459) " cx="21.8328182" cy="1.51745872" r="1"></circle>
                                <circle id="Oval-4" transform="translate(18.955072, 9.212913) rotate(-45.000000) translate(-18.955072, -9.212913) " cx="18.9550722" cy="9.21291261" r="1"></circle>
                                <circle id="Oval-4" transform="translate(21.603407, 6.571490) rotate(-45.000000) translate(-21.603407, -6.571490) " cx="21.6034066" cy="6.57149035" r="1"></circle>
                                <circle id="Oval-4" transform="translate(24.251741, 3.930068) rotate(-45.000000) translate(-24.251741, -3.930068) " cx="24.251741" cy="3.93006809" r="1"></circle>
                                <circle id="Oval-4" transform="translate(24.022329, 8.984100) rotate(-45.000000) translate(-24.022329, -8.984100) " cx="24.0223293" cy="8.98409972" r="1"></circle>
                            </g>
                            <g id="Group-14-Copy-2" transform="translate(63.000000, 10.000000)" fill="#000000">
                                <circle id="Oval-4" transform="translate(1.563790, 2.432710) rotate(-45.000000) translate(-1.563790, -2.432710) " cx="1.56378971" cy="2.43271026" r="1"></circle>
                                <circle id="Oval-4" transform="translate(1.334378, 7.486742) rotate(-45.000000) translate(-1.334378, -7.486742) " cx="1.33437806" cy="7.48674189" r="1"></circle>
                                <circle id="Oval-4" transform="translate(3.982712, 4.845320) rotate(-45.000000) translate(-3.982712, -4.845320) " cx="3.98271245" cy="4.84531963" r="1"></circle>
                                <circle id="Oval-4" transform="translate(6.631047, 2.203897) rotate(-45.000000) translate(-6.631047, -2.203897) " cx="6.63104685" cy="2.20389737" r="1"></circle>
                                <circle id="Oval-4" transform="translate(3.753301, 9.899351) rotate(-45.000000) translate(-3.753301, -9.899351) " cx="3.7533008" cy="9.89935126" r="1"></circle>
                                <circle id="Oval-4" transform="translate(6.401635, 7.257929) rotate(-45.000000) translate(-6.401635, -7.257929) " cx="6.4016352" cy="7.25792901" r="1"></circle>
                                <circle id="Oval-4" transform="translate(9.049970, 4.616507) rotate(-45.000000) translate(-9.049970, -4.616507) " cx="9.04996959" cy="4.61650675" r="1"></circle>
                                <circle id="Oval-4" transform="translate(11.698304, 1.975084) rotate(-45.000000) translate(-11.698304, -1.975084) " cx="11.698304" cy="1.97508449" r="1"></circle>
                                <circle id="Oval-4" transform="translate(8.820558, 9.670538) rotate(-45.000000) translate(-8.820558, -9.670538) " cx="8.82055794" cy="9.67053838" r="1"></circle>
                                <circle id="Oval-4" transform="translate(11.468892, 7.029116) rotate(-45.000000) translate(-11.468892, -7.029116) " cx="11.4688923" cy="7.02911612" r="1"></circle>
                                <circle id="Oval-4" transform="translate(14.117227, 4.387694) rotate(-45.000000) translate(-14.117227, -4.387694) " cx="14.1172267" cy="4.38769386" r="1"></circle>
                                <circle id="Oval-4" transform="translate(16.765561, 1.746272) rotate(-45.000000) translate(-16.765561, -1.746272) " cx="16.7655611" cy="1.7462716" r="1"></circle>
                                <circle id="Oval-4" transform="translate(13.887815, 9.441725) rotate(-45.000000) translate(-13.887815, -9.441725) " cx="13.8878151" cy="9.44172549" r="1"></circle>
                                <circle id="Oval-4" transform="translate(16.536149, 6.800303) rotate(-45.000000) translate(-16.536149, -6.800303) " cx="16.5361495" cy="6.80030323" r="1"></circle>
                                <circle id="Oval-4" transform="translate(19.184484, 4.158881) rotate(-45.000000) translate(-19.184484, -4.158881) " cx="19.1844839" cy="4.15888097" r="1"></circle>
                                <circle id="Oval-4" transform="translate(21.832818, 1.517459) rotate(-45.000000) translate(-21.832818, -1.517459) " cx="21.8328182" cy="1.51745872" r="1"></circle>
                                <circle id="Oval-4" transform="translate(18.955072, 9.212913) rotate(-45.000000) translate(-18.955072, -9.212913) " cx="18.9550722" cy="9.21291261" r="1"></circle>
                                <circle id="Oval-4" transform="translate(21.603407, 6.571490) rotate(-45.000000) translate(-21.603407, -6.571490) " cx="21.6034066" cy="6.57149035" r="1"></circle>
                                <circle id="Oval-4" transform="translate(24.251741, 3.930068) rotate(-45.000000) translate(-24.251741, -3.930068) " cx="24.251741" cy="3.93006809" r="1"></circle>
                                <circle id="Oval-4" transform="translate(24.022329, 8.984100) rotate(-45.000000) translate(-24.022329, -8.984100) " cx="24.0223293" cy="8.98409972" r="1"></circle>
                            </g>
                            <g id="Group-14-Copy-2" transform="translate(63.000000, 0.000000)" fill="#000000">
                                <circle id="Oval-4" transform="translate(1.563790, 2.432710) rotate(-45.000000) translate(-1.563790, -2.432710) " cx="1.56378971" cy="2.43271026" r="1"></circle>
                                <circle id="Oval-4" transform="translate(1.334378, 7.486742) rotate(-45.000000) translate(-1.334378, -7.486742) " cx="1.33437806" cy="7.48674189" r="1"></circle>
                                <circle id="Oval-4" transform="translate(3.982712, 4.845320) rotate(-45.000000) translate(-3.982712, -4.845320) " cx="3.98271245" cy="4.84531963" r="1"></circle>
                                <circle id="Oval-4" transform="translate(6.631047, 2.203897) rotate(-45.000000) translate(-6.631047, -2.203897) " cx="6.63104685" cy="2.20389737" r="1"></circle>
                                <circle id="Oval-4" transform="translate(3.753301, 9.899351) rotate(-45.000000) translate(-3.753301, -9.899351) " cx="3.7533008" cy="9.89935126" r="1"></circle>
                                <circle id="Oval-4" transform="translate(6.401635, 7.257929) rotate(-45.000000) translate(-6.401635, -7.257929) " cx="6.4016352" cy="7.25792901" r="1"></circle>
                                <circle id="Oval-4" transform="translate(9.049970, 4.616507) rotate(-45.000000) translate(-9.049970, -4.616507) " cx="9.04996959" cy="4.61650675" r="1"></circle>
                                <circle id="Oval-4" transform="translate(11.698304, 1.975084) rotate(-45.000000) translate(-11.698304, -1.975084) " cx="11.698304" cy="1.97508449" r="1"></circle>
                                <circle id="Oval-4" transform="translate(8.820558, 9.670538) rotate(-45.000000) translate(-8.820558, -9.670538) " cx="8.82055794" cy="9.67053838" r="1"></circle>
                                <circle id="Oval-4" transform="translate(11.468892, 7.029116) rotate(-45.000000) translate(-11.468892, -7.029116) " cx="11.4688923" cy="7.02911612" r="1"></circle>
                                <circle id="Oval-4" transform="translate(14.117227, 4.387694) rotate(-45.000000) translate(-14.117227, -4.387694) " cx="14.1172267" cy="4.38769386" r="1"></circle>
                                <circle id="Oval-4" transform="translate(16.765561, 1.746272) rotate(-45.000000) translate(-16.765561, -1.746272) " cx="16.7655611" cy="1.7462716" r="1"></circle>
                                <circle id="Oval-4" transform="translate(13.887815, 9.441725) rotate(-45.000000) translate(-13.887815, -9.441725) " cx="13.8878151" cy="9.44172549" r="1"></circle>
                                <circle id="Oval-4" transform="translate(16.536149, 6.800303) rotate(-45.000000) translate(-16.536149, -6.800303) " cx="16.5361495" cy="6.80030323" r="1"></circle>
                                <circle id="Oval-4" transform="translate(19.184484, 4.158881) rotate(-45.000000) translate(-19.184484, -4.158881) " cx="19.1844839" cy="4.15888097" r="1"></circle>
                                <circle id="Oval-4" transform="translate(21.832818, 1.517459) rotate(-45.000000) translate(-21.832818, -1.517459) " cx="21.8328182" cy="1.51745872" r="1"></circle>
                                <circle id="Oval-4" transform="translate(18.955072, 9.212913) rotate(-45.000000) translate(-18.955072, -9.212913) " cx="18.9550722" cy="9.21291261" r="1"></circle>
                                <circle id="Oval-4" transform="translate(21.603407, 6.571490) rotate(-45.000000) translate(-21.603407, -6.571490) " cx="21.6034066" cy="6.57149035" r="1"></circle>
                                <circle id="Oval-4" transform="translate(24.251741, 3.930068) rotate(-45.000000) translate(-24.251741, -3.930068) " cx="24.251741" cy="3.93006809" r="1"></circle>
                                <circle id="Oval-4" transform="translate(24.022329, 8.984100) rotate(-45.000000) translate(-24.022329, -8.984100) " cx="24.0223293" cy="8.98409972" r="1"></circle>
                            </g>
                        </g>
                        <polygon id="Fill-3767" fill="#6ED3FF" points="103 40.9256774 152.338667 40.9256774 152.338667 38 103 38"></polygon>
                        <polygon id="Fill-3768" fill="#6ED3FF" points="103 47.9256774 145.999533 47.9256774 145.999533 45 103 45"></polygon>
                        <polygon id="Fill-3769" fill="#6ED3FF" points="103 54.9256774 152.338667 54.9256774 152.338667 52 103 52"></polygon>
                        <polygon id="Fill-3769" fill="#6ED3FF" points="103 61.9256774 152.338667 61.9256774 152.338667 59 103 59"></polygon>
                        <path d="M106,75 L127.338667,75 C128.995521,75 130.338667,73.6568542 130.338667,72 L130.338667,72 C130.338667,70.3431458 128.995521,69 127.338667,69 L106,69 C104.343146,69 103,70.3431458 103,72 L103,72 C103,73.6568542 104.343146,75 106,75 Z" id="Fill-3769" fill="#6ED3FF"></path>
                        <path d="M106,84.0743226 L132.338667,84.0743226 C133.995521,84.0743226 135.338667,82.7311769 135.338667,81.0743226 L135.338667,81.0743226 C135.338667,79.4174684 133.995521,78.0743226 132.338667,78.0743226 L106,78.0743226 C104.343146,78.0743226 103,79.4174684 103,81.0743226 L103,81.0743226 C103,82.7311769 104.343146,84.0743226 106,84.0743226 Z" id="Fill-3769" fill="#6ED3FF"></path>
                        <polygon id="Fill-3767" fill="#ECECEC" points="58 25 90 25 90 20 58 20"></polygon>
                        <polygon id="Fill-3767" fill="#ECECEC" points="58 33 90 33 90 28 58 28"></polygon>
                        <polygon id="Fill-3767" fill="#ECECEC" points="58 41 90 41 90 36 58 36"></polygon>
                        <polygon id="Fill-3767" fill="#ECECEC" points="58 49 90 49 90 44 58 44"></polygon>
                        <polygon id="Fill-3767" fill="#ECECEC" points="58 57 90 57 90 52 58 52"></polygon>
                        <polygon id="Fill-3767" fill="#ECECEC" points="58 65 90 65 90 60 58 60"></polygon>
                        <polygon id="Fill-3767" fill="#ECECEC" points="58 73 90 73 90 68 58 68"></polygon>
                        <polygon id="Fill-3767" fill="#ECECEC" points="58 81 90 81 90 76 58 76"></polygon>
                        <polygon id="Fill-3767" fill="#ECECEC" points="58 89 90 89 90 84 58 84"></polygon>
                        <polygon id="Fill-3767" fill="#ECECEC" points="58 97 90 97 90 92 58 92"></polygon>
                        <polygon id="Fill-6624" stroke="#000000" stroke-width="2" fill="#6ED3FF" points="1.00230072 107.411492 182.643134 107.411492 182.643134 95.8600537 1.00230072 95.8600537"></polygon>
                        <g id="Group-9" transform="translate(0.301590, 94.633761)" fill="#000000">
                            <circle id="Oval-4" transform="translate(1.679501, 3.261994) rotate(-45.000000) translate(-1.679501, -3.261994) " cx="1.67950106" cy="3.26199362" r="1"></circle>
                            <circle id="Oval-4" transform="translate(1.428486, 8.791952) rotate(-45.000000) translate(-1.428486, -8.791952) " cx="1.42848622" cy="8.7919523" r="1"></circle>
                            <circle id="Oval-4" transform="translate(4.326208, 5.901793) rotate(-45.000000) translate(-4.326208, -5.901793) " cx="4.32620844" cy="5.90179311" r="1"></circle>
                            <circle id="Oval-4" transform="translate(7.223931, 3.011634) rotate(-45.000000) translate(-7.223931, -3.011634) " cx="7.22393066" cy="3.01163393" r="1"></circle>
                            <circle id="Oval-4" transform="translate(4.075194, 11.431752) rotate(-45.000000) translate(-4.075194, -11.431752) " cx="4.0751936" cy="11.4317518" r="1"></circle>
                            <circle id="Oval-4" transform="translate(6.972916, 8.541593) rotate(-45.000000) translate(-6.972916, -8.541593) " cx="6.97291582" cy="8.54159261" r="1"></circle>
                            <circle id="Oval-4" transform="translate(9.870638, 5.651433) rotate(-45.000000) translate(-9.870638, -5.651433) " cx="9.87063804" cy="5.65143342" r="1"></circle>
                            <circle id="Oval-4" transform="translate(12.768360, 2.761274) rotate(-45.000000) translate(-12.768360, -2.761274) " cx="12.7683603" cy="2.76127423" r="1"></circle>
                            <circle id="Oval-4" transform="translate(9.619623, 11.181392) rotate(-45.000000) translate(-9.619623, -11.181392) " cx="9.6196232" cy="11.1813921" r="1"></circle>
                            <circle id="Oval-4" transform="translate(12.517345, 8.291233) rotate(-45.000000) translate(-12.517345, -8.291233) " cx="12.5173454" cy="8.29123291" r="1"></circle>
                            <circle id="Oval-4" transform="translate(15.415068, 5.401074) rotate(-45.000000) translate(-15.415068, -5.401074) " cx="15.4150676" cy="5.40107373" r="1"></circle>
                            <circle id="Oval-4" transform="translate(18.312790, 2.510915) rotate(-45.000000) translate(-18.312790, -2.510915) " cx="18.3127899" cy="2.51091454" r="1"></circle>
                            <circle id="Oval-4" transform="translate(15.164053, 10.931032) rotate(-45.000000) translate(-15.164053, -10.931032) " cx="15.1640528" cy="10.9310324" r="1"></circle>
                            <circle id="Oval-4" transform="translate(18.061775, 8.040873) rotate(-45.000000) translate(-18.061775, -8.040873) " cx="18.061775" cy="8.04087322" r="1"></circle>
                            <circle id="Oval-4" transform="translate(20.959497, 5.150714) rotate(-45.000000) translate(-20.959497, -5.150714) " cx="20.9594972" cy="5.15071403" r="1"></circle>
                            <circle id="Oval-4" transform="translate(23.857219, 2.260555) rotate(-45.000000) translate(-23.857219, -2.260555) " cx="23.8572195" cy="2.26055485" r="1"></circle>
                            <circle id="Oval-4" transform="translate(20.708482, 10.680673) rotate(-45.000000) translate(-20.708482, -10.680673) " cx="20.7084824" cy="10.6806727" r="1"></circle>
                            <circle id="Oval-4" transform="translate(23.606205, 7.790514) rotate(-45.000000) translate(-23.606205, -7.790514) " cx="23.6062046" cy="7.79051353" r="1"></circle>
                            <circle id="Oval-4" transform="translate(26.503927, 4.900354) rotate(-45.000000) translate(-26.503927, -4.900354) " cx="26.5039268" cy="4.90035434" r="1"></circle>
                            <circle id="Oval-4" transform="translate(29.401649, 2.010195) rotate(-45.000000) translate(-29.401649, -2.010195) " cx="29.4016491" cy="2.01019515" r="1"></circle>
                            <circle id="Oval-4" transform="translate(26.252912, 10.430313) rotate(-45.000000) translate(-26.252912, -10.430313) " cx="26.252912" cy="10.430313" r="1"></circle>
                            <circle id="Oval-4" transform="translate(29.150634, 7.540154) rotate(-45.000000) translate(-29.150634, -7.540154) " cx="29.1506342" cy="7.54015383" r="1"></circle>
                            <circle id="Oval-4" transform="translate(32.048356, 4.649995) rotate(-45.000000) translate(-32.048356, -4.649995) " cx="32.0483564" cy="4.64999465" r="1"></circle>
                            <circle id="Oval-4" transform="translate(34.946079, 1.759835) rotate(-45.000000) translate(-34.946079, -1.759835) " cx="34.9460787" cy="1.75983546" r="1"></circle>
                            <circle id="Oval-4" transform="translate(31.797342, 10.179953) rotate(-45.000000) translate(-31.797342, -10.179953) " cx="31.7973416" cy="10.1799533" r="1"></circle>
                            <circle id="Oval-4" transform="translate(34.695064, 7.289794) rotate(-45.000000) translate(-34.695064, -7.289794) " cx="34.6950638" cy="7.28979414" r="1"></circle>
                            <circle id="Oval-4" transform="translate(37.592786, 4.399635) rotate(-45.000000) translate(-37.592786, -4.399635) " cx="37.592786" cy="4.39963495" r="1"></circle>
                            <circle id="Oval-4" transform="translate(40.490508, 1.509476) rotate(-45.000000) translate(-40.490508, -1.509476) " cx="40.4905083" cy="1.50947577" r="1"></circle>
                            <circle id="Oval-4" transform="translate(34.444049, 12.819753) rotate(-45.000000) translate(-34.444049, -12.819753) " cx="34.444049" cy="12.8197528" r="1"></circle>
                            <circle id="Oval-4" transform="translate(37.341771, 9.929594) rotate(-45.000000) translate(-37.341771, -9.929594) " cx="37.3417712" cy="9.92959363" r="1"></circle>
                            <circle id="Oval-4" transform="translate(40.239493, 7.039434) rotate(-45.000000) translate(-40.239493, -7.039434) " cx="40.2394934" cy="7.03943445" r="1"></circle>
                            <circle id="Oval-4" transform="translate(43.137216, 4.149275) rotate(-45.000000) translate(-43.137216, -4.149275) " cx="43.1372156" cy="4.14927526" r="1"></circle>
                            <circle id="Oval-4" transform="translate(46.034938, 1.259116) rotate(-45.000000) translate(-46.034938, -1.259116) " cx="46.0349379" cy="1.25911608" r="1"></circle>
                            <circle id="Oval-4" transform="translate(39.988479, 12.569393) rotate(-45.000000) translate(-39.988479, -12.569393) " cx="39.9884786" cy="12.5693931" r="1"></circle>
                            <circle id="Oval-4" transform="translate(42.886201, 9.679234) rotate(-45.000000) translate(-42.886201, -9.679234) " cx="42.8862008" cy="9.67923394" r="1"></circle>
                            <circle id="Oval-4" transform="translate(45.783923, 6.789075) rotate(-45.000000) translate(-45.783923, -6.789075) " cx="45.783923" cy="6.78907475" r="1"></circle>
                            <circle id="Oval-4" transform="translate(48.681645, 3.898916) rotate(-45.000000) translate(-48.681645, -3.898916) " cx="48.6816452" cy="3.89891557" r="1"></circle>
                            <circle id="Oval-4" transform="translate(45.532908, 12.319033) rotate(-45.000000) translate(-45.532908, -12.319033) " cx="45.5329082" cy="12.3190334" r="1"></circle>
                            <circle id="Oval-4" transform="translate(48.430630, 9.428874) rotate(-45.000000) translate(-48.430630, -9.428874) " cx="48.4306304" cy="9.42887425" r="1"></circle>
                            <circle id="Oval-4" transform="translate(51.328353, 6.538715) rotate(-45.000000) translate(-51.328353, -6.538715) " cx="51.3283526" cy="6.53871506" r="1"></circle>
                            <circle id="Oval-4" transform="translate(54.226075, 3.648556) rotate(-45.000000) translate(-54.226075, -3.648556) " cx="54.2260748" cy="3.64855588" r="1"></circle>
                            <circle id="Oval-4" transform="translate(51.077338, 12.068674) rotate(-45.000000) translate(-51.077338, -12.068674) " cx="51.0773378" cy="12.0686737" r="1"></circle>
                            <circle id="Oval-4" transform="translate(53.975060, 9.178515) rotate(-45.000000) translate(-53.975060, -9.178515) " cx="53.97506" cy="9.17851455" r="1"></circle>
                            <circle id="Oval-4" transform="translate(56.872782, 6.288355) rotate(-45.000000) translate(-56.872782, -6.288355) " cx="56.8727822" cy="6.28835537" r="1"></circle>
                            <circle id="Oval-4" transform="translate(59.770504, 3.398196) rotate(-45.000000) translate(-59.770504, -3.398196) " cx="59.7705044" cy="3.39819618" r="1"></circle>
                            <circle id="Oval-4" transform="translate(56.621767, 11.818314) rotate(-45.000000) translate(-56.621767, -11.818314) " cx="56.6217674" cy="11.818314" r="1"></circle>
                            <circle id="Oval-4" transform="translate(59.519490, 8.928155) rotate(-45.000000) translate(-59.519490, -8.928155) " cx="59.5194896" cy="8.92815486" r="1"></circle>
                            <circle id="Oval-4" transform="translate(62.417212, 6.037996) rotate(-45.000000) translate(-62.417212, -6.037996) " cx="62.4172118" cy="6.03799568" r="1"></circle>
                            <circle id="Oval-4" transform="translate(65.314934, 3.147836) rotate(-45.000000) translate(-65.314934, -3.147836) " cx="65.314934" cy="3.14783649" r="1"></circle>
                            <circle id="Oval-4" transform="translate(62.166197, 11.567954) rotate(-45.000000) translate(-62.166197, -11.567954) " cx="62.166197" cy="11.5679544" r="1"></circle>
                            <circle id="Oval-4" transform="translate(65.063919, 8.677795) rotate(-45.000000) translate(-65.063919, -8.677795) " cx="65.0639192" cy="8.67779517" r="1"></circle>
                            <circle id="Oval-4" transform="translate(67.961641, 5.787636) rotate(-45.000000) translate(-67.961641, -5.787636) " cx="67.9616414" cy="5.78763598" r="1"></circle>
                            <circle id="Oval-4" transform="translate(70.859364, 2.897477) rotate(-45.000000) translate(-70.859364, -2.897477) " cx="70.8593636" cy="2.8974768" r="1"></circle>
                            <circle id="Oval-4" transform="translate(67.710627, 11.317595) rotate(-45.000000) translate(-67.710627, -11.317595) " cx="67.7106266" cy="11.3175947" r="1"></circle>
                            <circle id="Oval-4" transform="translate(70.608349, 8.427435) rotate(-45.000000) translate(-70.608349, -8.427435) " cx="70.6083488" cy="8.42743548" r="1"></circle>
                            <circle id="Oval-4" transform="translate(73.506071, 5.537276) rotate(-45.000000) translate(-73.506071, -5.537276) " cx="73.506071" cy="5.53727629" r="1"></circle>
                            <circle id="Oval-4" transform="translate(76.403793, 2.647117) rotate(-45.000000) translate(-76.403793, -2.647117) " cx="76.4037932" cy="2.6471171" r="1"></circle>
                            <circle id="Oval-4" transform="translate(73.255056, 11.067235) rotate(-45.000000) translate(-73.255056, -11.067235) " cx="73.2550562" cy="11.067235" r="1"></circle>
                            <circle id="Oval-4" transform="translate(76.152778, 8.177076) rotate(-45.000000) translate(-76.152778, -8.177076) " cx="76.1527784" cy="8.17707578" r="1"></circle>
                            <circle id="Oval-4" transform="translate(79.050501, 5.286917) rotate(-45.000000) translate(-79.050501, -5.286917) " cx="79.0505006" cy="5.2869166" r="1"></circle>
                            <circle id="Oval-4" transform="translate(81.948223, 2.396757) rotate(-45.000000) translate(-81.948223, -2.396757) " cx="81.9482228" cy="2.39675741" r="1"></circle>
                            <circle id="Oval-4" transform="translate(78.799486, 10.816875) rotate(-45.000000) translate(-78.799486, -10.816875) " cx="78.7994858" cy="10.8168753" r="1"></circle>
                            <circle id="Oval-4" transform="translate(81.697208, 7.926716) rotate(-45.000000) translate(-81.697208, -7.926716) " cx="81.697208" cy="7.92671609" r="1"></circle>
                            <circle id="Oval-4" transform="translate(84.594930, 5.036557) rotate(-45.000000) translate(-84.594930, -5.036557) " cx="84.5949302" cy="5.0365569" r="1"></circle>
                            <circle id="Oval-4" transform="translate(87.492652, 2.146398) rotate(-45.000000) translate(-87.492652, -2.146398) " cx="87.4926524" cy="2.14639772" r="1"></circle>
                            <circle id="Oval-4" transform="translate(84.343915, 10.566516) rotate(-45.000000) translate(-84.343915, -10.566516) " cx="84.3439154" cy="10.5665156" r="1"></circle>
                            <circle id="Oval-4" transform="translate(87.241638, 7.676356) rotate(-45.000000) translate(-87.241638, -7.676356) " cx="87.2416376" cy="7.6763564" r="1"></circle>
                            <circle id="Oval-4" transform="translate(90.139360, 4.786197) rotate(-45.000000) translate(-90.139360, -4.786197) " cx="90.1393598" cy="4.78619721" r="1"></circle>
                            <circle id="Oval-4" transform="translate(93.037082, 1.896038) rotate(-45.000000) translate(-93.037082, -1.896038) " cx="93.037082" cy="1.89603802" r="1"></circle>
                            <circle id="Oval-4" transform="translate(89.888345, 10.316156) rotate(-45.000000) translate(-89.888345, -10.316156) " cx="89.888345" cy="10.3161559" r="1"></circle>
                            <circle id="Oval-4" transform="translate(92.786067, 7.425997) rotate(-45.000000) translate(-92.786067, -7.425997) " cx="92.7860672" cy="7.4259967" r="1"></circle>
                            <circle id="Oval-4" transform="translate(95.683789, 4.535838) rotate(-45.000000) translate(-95.683789, -4.535838) " cx="95.6837894" cy="4.53583752" r="1"></circle>
                            <circle id="Oval-4" transform="translate(98.581512, 1.645678) rotate(-45.000000) translate(-98.581512, -1.645678) " cx="98.5815116" cy="1.64567833" r="1"></circle>
                            <circle id="Oval-4" transform="translate(95.432775, 10.065796) rotate(-45.000000) translate(-95.432775, -10.065796) " cx="95.4327746" cy="10.0657962" r="1"></circle>
                            <circle id="Oval-4" transform="translate(98.330497, 7.175637) rotate(-45.000000) translate(-98.330497, -7.175637) " cx="98.3304968" cy="7.17563701" r="1"></circle>
                            <circle id="Oval-4" transform="translate(101.228219, 4.285478) rotate(-45.000000) translate(-101.228219, -4.285478) " cx="101.228219" cy="4.28547782" r="1"></circle>
                            <circle id="Oval-4" transform="translate(104.125941, 1.395319) rotate(-45.000000) translate(-104.125941, -1.395319) " cx="104.125941" cy="1.39531864" r="1"></circle>
                            <circle id="Oval-4" transform="translate(98.079482, 12.705596) rotate(-45.000000) translate(-98.079482, -12.705596) " cx="98.0794819" cy="12.7055957" r="1"></circle>
                            <circle id="Oval-4" transform="translate(100.977204, 9.815437) rotate(-45.000000) translate(-100.977204, -9.815437) " cx="100.977204" cy="9.8154365" r="1"></circle>
                            <circle id="Oval-4" transform="translate(103.874926, 6.925277) rotate(-45.000000) translate(-103.874926, -6.925277) " cx="103.874926" cy="6.92527732" r="1"></circle>
                            <circle id="Oval-4" transform="translate(106.772649, 4.035118) rotate(-45.000000) translate(-106.772649, -4.035118) " cx="106.772649" cy="4.03511813" r="1"></circle>
                            <circle id="Oval-4" transform="translate(109.670371, 1.144959) rotate(-45.000000) translate(-109.670371, -1.144959) " cx="109.670371" cy="1.14495895" r="1"></circle>
                            <circle id="Oval-4" transform="translate(103.623912, 12.455236) rotate(-45.000000) translate(-103.623912, -12.455236) " cx="103.623912" cy="12.455236" r="1"></circle>
                            <circle id="Oval-4" transform="translate(106.521634, 9.565077) rotate(-45.000000) translate(-106.521634, -9.565077) " cx="106.521634" cy="9.56507681" r="1"></circle>
                            <circle id="Oval-4" transform="translate(109.419356, 6.674918) rotate(-45.000000) translate(-109.419356, -6.674918) " cx="109.419356" cy="6.67491762" r="1"></circle>
                            <circle id="Oval-4" transform="translate(112.317078, 3.784758) rotate(-45.000000) translate(-112.317078, -3.784758) " cx="112.317078" cy="3.78475844" r="1"></circle>
                            <circle id="Oval-4" transform="translate(109.168341, 12.204876) rotate(-45.000000) translate(-109.168341, -12.204876) " cx="109.168341" cy="12.2048763" r="1"></circle>
                            <circle id="Oval-4" transform="translate(112.066063, 9.314717) rotate(-45.000000) translate(-112.066063, -9.314717) " cx="112.066063" cy="9.31471712" r="1"></circle>
                            <circle id="Oval-4" transform="translate(114.963786, 6.424558) rotate(-45.000000) translate(-114.963786, -6.424558) " cx="114.963786" cy="6.42455793" r="1"></circle>
                            <circle id="Oval-4" transform="translate(117.861508, 3.534399) rotate(-45.000000) translate(-117.861508, -3.534399) " cx="117.861508" cy="3.53439875" r="1"></circle>
                            <circle id="Oval-4" transform="translate(114.712771, 11.954517) rotate(-45.000000) translate(-114.712771, -11.954517) " cx="114.712771" cy="11.9545166" r="1"></circle>
                            <circle id="Oval-4" transform="translate(117.610493, 9.064357) rotate(-45.000000) translate(-117.610493, -9.064357) " cx="117.610493" cy="9.06435742" r="1"></circle>
                            <circle id="Oval-4" transform="translate(120.508215, 6.174198) rotate(-45.000000) translate(-120.508215, -6.174198) " cx="120.508215" cy="6.17419824" r="1"></circle>
                            <circle id="Oval-4" transform="translate(123.405937, 3.284039) rotate(-45.000000) translate(-123.405937, -3.284039) " cx="123.405937" cy="3.28403905" r="1"></circle>
                            <circle id="Oval-4" transform="translate(120.257200, 11.704157) rotate(-45.000000) translate(-120.257200, -11.704157) " cx="120.2572" cy="11.7041569" r="1"></circle>
                            <circle id="Oval-4" transform="translate(123.154923, 8.813998) rotate(-45.000000) translate(-123.154923, -8.813998) " cx="123.154923" cy="8.81399773" r="1"></circle>
                            <circle id="Oval-4" transform="translate(126.052645, 5.923839) rotate(-45.000000) translate(-126.052645, -5.923839) " cx="126.052645" cy="5.92383855" r="1"></circle>
                            <circle id="Oval-4" transform="translate(128.950367, 3.033679) rotate(-45.000000) translate(-128.950367, -3.033679) " cx="128.950367" cy="3.03367936" r="1"></circle>
                            <circle id="Oval-4" transform="translate(125.801630, 11.453797) rotate(-45.000000) translate(-125.801630, -11.453797) " cx="125.80163" cy="11.4537972" r="1"></circle>
                            <circle id="Oval-4" transform="translate(128.699352, 8.563638) rotate(-45.000000) translate(-128.699352, -8.563638) " cx="128.699352" cy="8.56363804" r="1"></circle>
                            <circle id="Oval-4" transform="translate(131.597074, 5.673479) rotate(-45.000000) translate(-131.597074, -5.673479) " cx="131.597074" cy="5.67347885" r="1"></circle>
                            <circle id="Oval-4" transform="translate(134.494797, 2.783320) rotate(-45.000000) translate(-134.494797, -2.783320) " cx="134.494797" cy="2.78331967" r="1"></circle>
                            <circle id="Oval-4" transform="translate(131.346060, 11.203438) rotate(-45.000000) translate(-131.346060, -11.203438) " cx="131.34606" cy="11.2034375" r="1"></circle>
                            <circle id="Oval-4" transform="translate(134.243782, 8.313278) rotate(-45.000000) translate(-134.243782, -8.313278) " cx="134.243782" cy="8.31327835" r="1"></circle>
                            <circle id="Oval-4" transform="translate(137.141504, 5.423119) rotate(-45.000000) translate(-137.141504, -5.423119) " cx="137.141504" cy="5.42311916" r="1"></circle>
                            <circle id="Oval-4" transform="translate(140.039226, 2.532960) rotate(-45.000000) translate(-140.039226, -2.532960) " cx="140.039226" cy="2.53295997" r="1"></circle>
                            <circle id="Oval-4" transform="translate(136.890489, 10.953078) rotate(-45.000000) translate(-136.890489, -10.953078) " cx="136.890489" cy="10.9530778" r="1"></circle>
                            <circle id="Oval-4" transform="translate(139.788211, 8.062919) rotate(-45.000000) translate(-139.788211, -8.062919) " cx="139.788211" cy="8.06291865" r="1"></circle>
                            <circle id="Oval-4" transform="translate(142.685934, 5.172759) rotate(-45.000000) translate(-142.685934, -5.172759) " cx="142.685934" cy="5.17275947" r="1"></circle>
                            <circle id="Oval-4" transform="translate(145.583656, 2.282600) rotate(-45.000000) translate(-145.583656, -2.282600) " cx="145.583656" cy="2.28260028" r="1"></circle>
                            <circle id="Oval-4" transform="translate(142.434919, 10.702718) rotate(-45.000000) translate(-142.434919, -10.702718) " cx="142.434919" cy="10.7027181" r="1"></circle>
                            <circle id="Oval-4" transform="translate(145.332641, 7.812559) rotate(-45.000000) translate(-145.332641, -7.812559) " cx="145.332641" cy="7.81255896" r="1"></circle>
                            <circle id="Oval-4" transform="translate(148.230363, 4.922400) rotate(-45.000000) translate(-148.230363, -4.922400) " cx="148.230363" cy="4.92239977" r="1"></circle>
                            <circle id="Oval-4" transform="translate(151.128085, 2.032241) rotate(-45.000000) translate(-151.128085, -2.032241) " cx="151.128085" cy="2.03224059" r="1"></circle>
                            <circle id="Oval-4" transform="translate(147.979348, 10.452358) rotate(-45.000000) translate(-147.979348, -10.452358) " cx="147.979348" cy="10.4523585" r="1"></circle>
                            <circle id="Oval-4" transform="translate(150.877071, 7.562199) rotate(-45.000000) translate(-150.877071, -7.562199) " cx="150.877071" cy="7.56219927" r="1"></circle>
                            <circle id="Oval-4" transform="translate(153.774793, 4.672040) rotate(-45.000000) translate(-153.774793, -4.672040) " cx="153.774793" cy="4.67204008" r="1"></circle>
                            <circle id="Oval-4" transform="translate(156.672515, 1.781881) rotate(-45.000000) translate(-156.672515, -1.781881) " cx="156.672515" cy="1.7818809" r="1"></circle>
                            <circle id="Oval-4" transform="translate(153.523778, 10.201999) rotate(-45.000000) translate(-153.523778, -10.201999) " cx="153.523778" cy="10.2019988" r="1"></circle>
                            <circle id="Oval-4" transform="translate(156.421500, 7.311840) rotate(-45.000000) translate(-156.421500, -7.311840) " cx="156.4215" cy="7.31183957" r="1"></circle>
                            <circle id="Oval-4" transform="translate(159.319222, 4.421680) rotate(-45.000000) translate(-159.319222, -4.421680) " cx="159.319222" cy="4.42168039" r="1"></circle>
                            <circle id="Oval-4" transform="translate(162.216945, 1.531521) rotate(-45.000000) translate(-162.216945, -1.531521) " cx="162.216945" cy="1.5315212" r="1"></circle>
                            <circle id="Oval-4" transform="translate(156.170485, 12.841798) rotate(-45.000000) translate(-156.170485, -12.841798) " cx="156.170485" cy="12.8417983" r="1"></circle>
                            <circle id="Oval-4" transform="translate(159.068208, 9.951639) rotate(-45.000000) translate(-159.068208, -9.951639) " cx="159.068208" cy="9.95163907" r="1"></circle>
                            <circle id="Oval-4" transform="translate(161.965930, 7.061480) rotate(-45.000000) translate(-161.965930, -7.061480) " cx="161.96593" cy="7.06147988" r="1"></circle>
                            <circle id="Oval-4" transform="translate(164.863652, 4.171321) rotate(-45.000000) translate(-164.863652, -4.171321) " cx="164.863652" cy="4.1713207" r="1"></circle>
                            <circle id="Oval-4" transform="translate(167.761374, 1.281162) rotate(-45.000000) translate(-167.761374, -1.281162) " cx="167.761374" cy="1.28116151" r="1"></circle>
                            <circle id="Oval-4" transform="translate(161.714915, 12.591439) rotate(-45.000000) translate(-161.714915, -12.591439) " cx="161.714915" cy="12.5914386" r="1"></circle>
                            <circle id="Oval-4" transform="translate(164.612637, 9.701279) rotate(-45.000000) translate(-164.612637, -9.701279) " cx="164.612637" cy="9.70127937" r="1"></circle>
                            <circle id="Oval-4" transform="translate(167.510359, 6.811120) rotate(-45.000000) translate(-167.510359, -6.811120) " cx="167.510359" cy="6.81112019" r="1"></circle>
                            <circle id="Oval-4" transform="translate(170.408082, 3.920961) rotate(-45.000000) translate(-170.408082, -3.920961) " cx="170.408082" cy="3.920961" r="1"></circle>
                            <circle id="Oval-4" transform="translate(167.259345, 12.341079) rotate(-45.000000) translate(-167.259345, -12.341079) " cx="167.259345" cy="12.3410789" r="1"></circle>
                            <circle id="Oval-4" transform="translate(170.157067, 9.450920) rotate(-45.000000) translate(-170.157067, -9.450920) " cx="170.157067" cy="9.45091968" r="1"></circle>
                            <circle id="Oval-4" transform="translate(173.054789, 6.560760) rotate(-45.000000) translate(-173.054789, -6.560760) " cx="173.054789" cy="6.5607605" r="1"></circle>
                            <circle id="Oval-4" transform="translate(172.803774, 12.090719) rotate(-45.000000) translate(-172.803774, -12.090719) " cx="172.803774" cy="12.0907192" r="1"></circle>
                            <circle id="Oval-4" transform="translate(175.701496, 9.200560) rotate(-45.000000) translate(-175.701496, -9.200560) " cx="175.701496" cy="9.20055999" r="1"></circle>
                        </g>
                    </g>
                    <circle id="Oval-4-Copy" fill="#000000" transform="translate(174.003756, 96.607949) rotate(-45.000000) translate(-174.003756, -96.607949) " cx="174.003756" cy="96.6079494" r="1"></circle>
                    <circle id="Oval-4-Copy-2" fill="#000000" transform="translate(176.650463, 99.254657) rotate(-45.000000) translate(-176.650463, -99.254657) " cx="176.650463" cy="99.2546568" r="1"></circle>
                    <circle id="Oval-4" fill="#000000" transform="translate(168.101150, 96.356935) rotate(-45.000000) translate(-168.101150, -96.356935) " cx="168.10115" cy="96.3569346" r="1"></circle>
                    <circle id="Oval-4-Copy-3" fill="#000000" transform="translate(179.297170, 101.901364) rotate(-45.000000) translate(-179.297170, -101.901364) " cx="179.29717" cy="101.901364" r="1"></circle>
                    <circle id="Oval-4" fill="#000000" transform="translate(170.747858, 99.003642) rotate(-45.000000) translate(-170.747858, -99.003642) " cx="170.747858" cy="99.003642" r="1"></circle>
                    <circle id="Oval-4-Copy-4" fill="#000000" transform="translate(181.943878, 104.548072) rotate(-45.000000) translate(-181.943878, -104.548072) " cx="181.943878" cy="104.548072" r="1"></circle>
                    <circle id="Oval-4" fill="#000000" transform="translate(173.394565, 101.650349) rotate(-45.000000) translate(-173.394565, -101.650349) " cx="173.394565" cy="101.650349" r="1"></circle>
                    <circle id="Oval-4" fill="#000000" transform="translate(173.143550, 107.194779) rotate(-45.000000) translate(-173.143550, -107.194779) " cx="173.14355" cy="107.194779" r="1"></circle>
                    <circle id="Oval-4-Copy-5" fill="#000000" transform="translate(178.616366, 107.194779) rotate(-45.000000) translate(-178.616366, -107.194779) " cx="178.616366" cy="107.194779" r="1"></circle>
                    <circle id="Oval-4-Copy-6" fill="#000000" transform="translate(181.968710, 99.371126) rotate(-45.000000) translate(-181.968710, -99.371126) " cx="181.96871" cy="99.3711255" r="1"></circle>
                    <circle id="Oval-4-Copy-7" fill="#000000" transform="translate(179.413210, 96.685476) rotate(-45.000000) translate(-179.413210, -96.685476) " cx="179.41321" cy="96.6854763" r="1"></circle>
                    <circle id="Oval-4" fill="#000000" transform="translate(176.041273, 104.297057) rotate(-45.000000) translate(-176.041273, -104.297057) " cx="176.041273" cy="104.297057" r="1"></circle>
                    <text id="Indeed-Embox" font-family="HelveticaNeue-Bold, Helvetica Neue" font-size="8" font-weight="bold" fill="#000000">
                        <tspan x="102" y="34">Indeed Embox</tspan>
                    </text>
                </g>
            </g>
        </g>
    </g>
</svg>